<!-- Generator: Adobe Illustrator 22.1.0, SVG Export Plug-In  -->
<svg version="1.1"
	 xmlns="http://www.w3.org/2000/svg" xmlns:xlink="http://www.w3.org/1999/xlink" xmlns:a="http://ns.adobe.com/AdobeSVGViewerExtensions/3.0/"
	 x="0px" y="0px" width="45px" height="58px" viewBox="0 0 45 58" style="overflow:scroll;enable-background:new 0 0 45 58;"
	 xml:space="preserve">
<style type="text/css">
	.st0{fill:#B3B3B3;}
	.st1{fill:#808080;}
	.st2{fill:#CCCCCC;}
	.st3{fill:#E6E6E6;}
	.st4{display:none;fill:#00FF00;}
	.st5{fill:#00FFFF;}
	.st6{fill:#FF00FF;}
	.st7{fill:#FBB03B;}
	.st8{fill:#29ABE2;}
</style>
<defs>
</defs>
<g>
	<path class="st0" d="M45,32.9C45,48.9,34.9,58,22.5,58S0,48.9,0,32.9S10.1,0,22.5,0S45,16.9,45,32.9z"/>
	<path class="st1" d="M20,55c-1.4,0-2.8-0.2-4.1-0.4c0.6,0.5,1.2,0.9,1.9,1.3c1.7,0.5,3.6,0.7,5.4,0.7c11.2,0,20.3-8.6,20.3-23.8
		c0-0.2,0-0.4,0-0.6C41.1,45.2,31.5,55,20,55z"/>
	<ellipse transform="matrix(0.3976 -0.9176 0.9176 0.3976 -9.0966 25.3325)" class="st2" cx="14.7" cy="19.6" rx="17.8" ry="7.8"/>
	<path class="st3" d="M7.9,34.3c0-14.5,8.2-29.7,18.2-29.7c0.8,0,1.5,0.1,2.3,0.3c-2-1.3-4.1-2.1-6.3-2.1C12,2.8,3.9,18.1,3.9,32.5
		c0,12,5.6,19.7,13.3,21.9C11.7,51,7.9,44.1,7.9,34.3z"/>
	<path class="st4" d="M45,32.9C45,48.9,34.9,58,22.5,58S0,48.9,0,32.9S10.1,0,22.5,0S45,16.9,45,32.9z"/>
</g>
<g>
	<path class="st5" d="M44.5,26.6C42.3,12.8,33.3,0,22.5,0C11.8,0,2.8,12.6,0.6,26.3C7.2,28.7,14.8,30,23,30
		C30.8,30,38.1,28.8,44.5,26.6z"/>
	<path class="st6" d="M0.8,40.4C3.5,51.7,12.2,58,22.5,58c10.2,0,18.9-6.1,21.6-17.2C37.8,42.8,30.6,44,23,44
		C15,44,7.4,42.7,0.8,40.4z"/>
	<path class="st7" d="M44.5,26.6C38.1,28.8,30.8,30,23,30c-8.2,0-15.8-1.3-22.4-3.7C0.2,28.5,0,30.7,0,32.9c0,2.7,0.3,5.2,0.8,7.5
		C7.4,42.7,15,44,23,44c7.6,0,14.8-1.2,21.1-3.2c0.6-2.4,0.9-5,0.9-7.8C45,30.8,44.8,28.7,44.5,26.6z M4,40c-1.7,0-3-2.5-3-5.5
		c0-3,1.3-5.5,3-5.5s3,2.5,3,5.5C7,37.5,5.7,40,4,40z M12.5,42C10.6,42,9,39.5,9,36.5c0-3,1.6-5.5,3.5-5.5s3.5,2.5,3.5,5.5
		C16,39.5,14.4,42,12.5,42z M22.5,43C20,43,18,40.5,18,37.5c0-3,2-5.5,4.5-5.5s4.5,2.5,4.5,5.5C27,40.5,25,43,22.5,43z M32.5,42
		c-1.9,0-3.5-2.5-3.5-5.5c0-3,1.6-5.5,3.5-5.5s3.5,2.5,3.5,5.5C36,39.5,34.4,42,32.5,42z M41,40c-1.7,0-3-2.5-3-5.5
		c0-3,1.3-5.5,3-5.5s3,2.5,3,5.5C44,37.5,42.7,40,41,40z"/>
	<path class="st8" d="M27,37.5c0,3-2,5.5-4.5,5.5S18,40.5,18,37.5c0-3,2-5.5,4.5-5.5S27,34.5,27,37.5z M4,29c-1.7,0-3,2.5-3,5.5
		c0,3,1.3,5.5,3,5.5s3-2.5,3-5.5C7,31.5,5.7,29,4,29z M12.5,31C10.6,31,9,33.5,9,36.5c0,3,1.6,5.5,3.5,5.5s3.5-2.5,3.5-5.5
		C16,33.5,14.4,31,12.5,31z M41,29c-1.7,0-3,2.5-3,5.5c0,3,1.3,5.5,3,5.5s3-2.5,3-5.5C44,31.5,42.7,29,41,29z M32.5,31
		c-1.9,0-3.5,2.5-3.5,5.5c0,3,1.6,5.5,3.5,5.5s3.5-2.5,3.5-5.5C36,33.5,34.4,31,32.5,31z"/>
</g>
</svg>
