<svg xmlns="http://www.w3.org/2000/svg" width="45" height="58" viewBox="0 0 45 58" overflow="scroll">
  <path d="M45 32.9C45 48.9 34.9 58 22.5 58S0 48.9 0 32.9 10.1 0 22.5 0 45 16.9 45 32.9z" fill="#b3b3b3">
</path>
  <path d="M20 55c-1.4 0-2.8-.2-4.1-.4.6.5 1.2.9 1.9 1.3 1.7.5 3.6.7 5.4.7 11.2 0 20.3-8.6 20.3-23.8v-.6C41.1 45.2 31.5 55 20 55z" fill="gray">
</path>
  <ellipse transform="rotate(-66.573 14.744 19.593)" cx="14.7" cy="19.6" rx="17.8" ry="7.8" fill="#ccc">
</ellipse>
  <path d="M7.9 34.3c0-14.5 8.2-29.7 18.2-29.7.8 0 1.5.1 2.3.3-2-1.3-4.1-2.1-6.3-2.1C12 2.8 3.9 18.1 3.9 32.5c0 12 5.6 19.7 13.3 21.9-5.5-3.4-9.3-10.3-9.3-20.1z" fill="#e6e6e6">
</path>
  <g>
    <path d="M44.5 26.6C42.3 12.8 33.3 0 22.5 0 11.8 0 2.8 12.6.6 26.3 7.2 28.7 14.8 30 23 30c7.8 0 15.1-1.2 21.5-3.4z" fill="#0ff">
</path>
    <path d="M.8 40.4C3.5 51.7 12.2 58 22.5 58c10.2 0 18.9-6.1 21.6-17.2-6.3 2-13.5 3.2-21.1 3.2-8 0-15.6-1.3-22.2-3.6z" fill="#f0f">
</path>
    <path d="M44.5 26.6C38.1 28.8 30.8 30 23 30 14.8 30 7.2 28.7.6 26.3c-.4 2.2-.6 4.4-.6 6.6 0 2.7.3 5.2.8 7.5C7.4 42.7 15 44 23 44c7.6 0 14.8-1.2 21.1-3.2.6-2.4.9-5 .9-7.8 0-2.2-.2-4.3-.5-6.4zM4 40c-1.7 0-3-2.5-3-5.5S2.3 29 4 29s3 2.5 3 5.5S5.7 40 4 40zm8.5 2C10.6 42 9 39.5 9 36.5s1.6-5.5 3.5-5.5 3.5 2.5 3.5 5.5-1.6 5.5-3.5 5.5zm10 1C20 43 18 40.5 18 37.5s2-5.5 4.5-5.5 4.5 2.5 4.5 5.5-2 5.5-4.5 5.5zm10-1c-1.9 0-3.5-2.5-3.5-5.5s1.6-5.5 3.5-5.5 3.5 2.5 3.5 5.5-1.6 5.5-3.5 5.5zm8.5-2c-1.7 0-3-2.5-3-5.5s1.3-5.5 3-5.5 3 2.5 3 5.5-1.3 5.5-3 5.5z" fill="#fbb03b">
</path>
    <path d="M27 37.5c0 3-2 5.5-4.5 5.5S18 40.5 18 37.5s2-5.5 4.5-5.5 4.5 2.5 4.5 5.5zM4 29c-1.7 0-3 2.5-3 5.5S2.3 40 4 40s3-2.5 3-5.5S5.7 29 4 29zm8.5 2C10.6 31 9 33.5 9 36.5s1.6 5.5 3.5 5.5 3.5-2.5 3.5-5.5-1.6-5.5-3.5-5.5zM41 29c-1.7 0-3 2.5-3 5.5s1.3 5.5 3 5.5 3-2.5 3-5.5-1.3-5.5-3-5.5zm-8.5 2c-1.9 0-3.5 2.5-3.5 5.5s1.6 5.5 3.5 5.5 3.5-2.5 3.5-5.5-1.6-5.5-3.5-5.5z" fill="#29abe2">
</path>
  </g>
</svg>
