<?xml version="1.0" encoding="UTF-8" standalone="no"?>
<!DOCTYPE svg PUBLIC "-//W3C//DTD SVG 1.1//EN" "http://www.w3.org/Graphics/SVG/1.1/DTD/svg11.dtd">
<svg version="1.1" xmlns="http://www.w3.org/2000/svg" xmlns:xlink="http://www.w3.org/1999/xlink" preserveAspectRatio="xMidYMid meet" viewBox="0.0022222222221870425 -0.00277777777780841 79.99999999999999 58.88" width="80" height="58.88"><defs><path d="M44.88 52.9C45.29 47.12 46.68 41.14 49.05 34.94C51.42 28.75 56.03 24.03 62.89 20.8C55.75 21.69 50.7 24.61 47.72 29.57C44.75 34.53 42.59 39.83 41.25 45.47C40.7 40.27 40.88 34.09 41.8 26.92C42.71 19.75 44.35 11.59 46.72 2.44C43.8 8.75 41.41 15.19 39.53 21.73C37.65 28.28 36.27 35.05 35.39 42.05C35.42 35.93 34.3 30.56 32.05 25.96C29.79 21.36 26.41 17.4 21.91 14.1C25.16 19.19 27.51 24.84 28.98 31.04C30.44 37.23 31.01 43.98 30.69 51.29L44.88 52.9Z" id="a31o3BpGvS"></path><path d="M48.38 2.82L48.44 3.51L48.5 4.21L48.55 4.91L48.6 5.61L48.64 6.31L48.69 7L48.73 7.7L48.76 8.39L48.8 9.09L48.83 9.78L48.85 10.48L48.88 11.17L48.9 11.86L48.91 12.55L48.93 13.24L48.94 13.93L48.94 14.62L48.95 15.31L48.95 16L48.94 16.69L48.94 17.37L48.93 18.06L48.92 18.75L48.9 19.43L48.88 20.12L48.86 20.8L48.83 21.48L48.8 22.17L48.77 22.85L48.74 23.53L48.7 24.21L48.65 24.89L48.61 25.57L48.56 26.25L48.51 26.93L48.45 27.61L48.4 28.28L48.33 28.96L48.27 29.64L48.2 30.31L48.13 30.99L48.05 31.66L47.98 32.34L47.89 33.01L47.81 33.69L47.72 34.37L47.63 35.04L47.53 35.72L47.43 36.39L47.33 37.07L47.23 37.74L47.12 38.42L47 39.09L46.89 39.77L46.77 40.44L46.65 41.12L46.52 41.79L46.39 42.46L46.26 43.14L46.12 43.81L45.98 44.49L45.84 45.16L45.69 45.84L45.54 46.51L45.39 47.18L45.23 47.86L45.07 48.53L44.91 49.2L44.75 49.88L44.58 50.55L44.4 51.22L44.23 51.9L44.05 52.57L43.86 53.24L43.67 53.92L43.48 54.59L43.29 55.26L43.09 55.94L43.36 55.38L43.62 54.84L43.9 54.3L44.17 53.76L44.46 53.23L44.74 52.71L45.04 52.19L45.33 51.68L45.64 51.17L45.94 50.68L46.26 50.18L46.58 49.7L46.9 49.21L47.23 48.74L47.56 48.27L47.9 47.81L48.24 47.35L48.59 46.9L48.94 46.45L49.3 46.01L49.66 45.58L50.03 45.15L50.4 44.73L50.78 44.31L51.16 43.91L51.55 43.5L51.94 43.1L52.34 42.71L52.74 42.33L53.15 41.95L53.56 41.57L53.98 41.21L54.4 40.84L54.83 40.49L55.26 40.14L55.7 39.79L56.14 39.46L56.59 39.12L57.04 38.8L57.5 38.48L57.96 38.16L58.43 37.85L58.9 37.55L59.38 37.25L59.86 36.96L60.35 36.67L60.84 36.39L61.34 36.12L61.85 35.84L62.36 35.58L62.87 35.32L63.39 35.06L63.91 34.82L64.44 34.57L64.98 34.33L65.52 34.1L66.06 33.87L66.61 33.65L67.17 33.43L67.73 33.22L68.29 33.02L68.86 32.82L69.44 32.62L70.02 32.43L70.6 32.25L71.19 32.07L71.79 31.9L72.39 31.73L73 31.57L73.61 31.41L74.22 31.26L74.85 31.11L75.47 30.97L76.1 30.84L76.74 30.71L77.38 30.58L78.03 30.46L78.68 30.35L79.34 30.24L80 30.14L79.41 30.46L78.82 30.78L78.23 31.11L77.65 31.45L77.07 31.78L76.5 32.13L75.93 32.47L75.36 32.82L74.8 33.18L74.24 33.54L73.68 33.9L73.13 34.27L72.59 34.64L72.05 35.02L71.51 35.4L70.97 35.79L70.44 36.18L69.92 36.58L69.39 36.98L68.88 37.38L68.36 37.79L67.85 38.21L67.34 38.62L66.84 39.05L66.34 39.47L65.85 39.91L65.36 40.34L64.87 40.78L64.39 41.23L63.91 41.68L63.44 42.13L62.96 42.59L62.5 43.05L62.04 43.52L61.58 43.99L61.12 44.47L60.67 44.95L60.23 45.43L59.78 45.92L59.34 46.42L58.91 46.92L58.48 47.42L58.05 47.93L57.63 48.44L57.21 48.95L56.8 49.48L56.38 50L55.98 50.53L55.58 51.07L55.18 51.6L54.78 52.15L54.39 52.7L54 53.25L53.62 53.81L53.24 54.37L52.87 54.93L52.5 55.5L52.13 56.08L51.77 56.66L51.41 57.24L51.05 57.83L50.7 58.42L50.44 58.88L23.64 58.88L23.76 58.43L23.91 57.86L24.06 57.29L24.2 56.71L24.33 56.13L24.46 55.55L24.59 54.96L24.71 54.37L24.82 53.78L24.93 53.19L25.04 52.59L25.14 51.99L25.23 51.38L25.32 50.77L25.4 50.16L25.48 49.55L25.55 48.93L25.62 48.31L25.68 47.68L25.74 47.06L25.79 46.43L25.83 45.79L25.87 45.16L25.91 44.52L25.94 43.88L25.97 43.23L25.99 42.58L26 41.93L26.01 41.27L26.01 40.62L26.01 39.95L26.01 39.29L25.99 38.63L25.96 37.96L25.91 37.3L25.84 36.64L25.76 35.98L25.66 35.33L25.55 34.67L25.42 34.02L25.27 33.37L25.11 32.72L24.93 32.07L24.73 31.42L24.52 30.78L24.29 30.14L24.05 29.5L23.79 28.86L23.51 28.22L23.22 27.58L22.91 26.95L22.58 26.32L22.24 25.69L21.89 25.06L21.51 24.43L21.12 23.81L20.72 23.18L20.29 22.56L19.86 21.94L19.4 21.32L18.93 20.71L18.44 20.09L17.94 19.48L17.42 18.87L16.88 18.26L16.33 17.65L15.76 17.05L15.18 16.44L14.58 15.84L13.96 15.24L13.33 14.64L12.68 14.04L13.46 14.44L14.23 14.85L14.98 15.25L15.71 15.67L16.43 16.08L17.13 16.5L17.81 16.93L18.48 17.36L19.13 17.8L19.76 18.24L20.38 18.68L20.98 19.13L21.57 19.58L22.13 20.04L22.69 20.51L23.22 20.97L23.74 21.45L24.24 21.92L24.73 22.4L25.2 22.89L25.65 23.38L26.09 23.88L26.51 24.38L26.91 24.88L27.3 25.39L27.67 25.9L28.02 26.42L28.36 26.95L28.68 27.47L28.99 28.01L29.28 28.54L29.55 29.08L29.81 29.63L30.05 30.18L30.27 30.74L30.48 31.3L30.67 31.86L30.84 32.43L31 33L31.14 33.58L31.27 34.16L31.39 34.74L31.51 35.32L31.62 35.9L31.73 36.48L31.83 37.06L31.93 37.64L32.02 38.22L32.11 38.8L32.19 39.38L32.26 39.95L32.33 40.53L32.4 41.11L32.45 41.69L32.51 42.26L32.56 42.84L32.6 43.42L32.63 43.99L32.66 44.57L32.69 45.14L32.71 45.72L32.72 46.29L32.73 46.87L32.74 47.44L32.73 48.02L32.73 48.59L32.71 49.16L32.7 49.74L32.67 50.31L32.64 50.88L32.61 51.46L32.57 52.03L32.52 52.6L32.47 53.17L32.41 53.74L32.35 54.31L32.28 54.89L32.21 55.46L32.13 56.03L32.05 56.6L32.33 56.15L32.62 55.69L32.9 55.23L33.18 54.76L33.46 54.29L33.73 53.81L34 53.33L34.28 52.83L34.55 52.34L34.81 51.83L35.08 51.32L35.34 50.81L35.6 50.28L35.86 49.75L36.12 49.22L36.37 48.68L36.62 48.13L36.87 47.58L37.12 47.02L37.37 46.46L37.61 45.89L37.85 45.31L38.09 44.73L38.33 44.14L38.57 43.54L38.8 42.94L39.03 42.33L39.26 41.72L39.49 41.1L39.71 40.47L39.94 39.84L40.16 39.2L40.37 38.56L40.59 37.91L40.81 37.25L41.02 36.59L41.23 35.92L41.44 35.25L41.64 34.57L41.84 33.88L42.05 33.19L42.25 32.49L42.44 31.78L42.64 31.07L42.83 30.36L43.02 29.63L43.21 28.9L43.4 28.17L43.58 27.43L43.76 26.68L43.95 25.92L44.12 25.16L44.3 24.4L44.47 23.63L44.65 22.85L44.82 22.06L44.98 21.27L45.15 20.48L45.31 19.67L45.47 18.87L45.63 18.05L45.79 17.23L45.94 16.4L46.1 15.57L46.25 14.73L46.4 13.89L46.54 13.03L46.69 12.18L46.83 11.31L46.97 10.44L47.11 9.57L47.24 8.69L47.38 7.8L47.51 6.91L47.64 6.01L47.77 5.1L47.89 4.19L48.01 3.27L48.13 2.34L48.25 1.41L48.32 2.11L48.38 2.82Z" id="a6ht54VwG"></path><path d="M37.16 1.86L37.08 2.78L37 3.7L36.92 4.61L36.85 5.52L36.78 6.42L36.71 7.31L36.65 8.2L36.59 9.09L36.53 9.97L36.48 10.84L36.43 11.71L36.38 12.57L36.34 13.43L36.3 14.28L36.26 15.13L36.23 15.97L36.2 16.8L36.17 17.63L36.15 18.45L36.13 19.27L36.12 20.09L36.1 20.89L36.1 21.7L36.09 22.49L36.09 23.29L36.09 24.07L36.09 24.85L36.1 25.63L36.11 26.4L36.13 27.16L36.15 27.92L36.17 28.67L36.2 29.42L36.23 30.16L36.26 30.9L36.29 31.63L36.33 32.36L36.37 33.08L36.42 33.79L36.47 34.5L36.52 35.2L36.58 35.9L36.64 36.6L36.7 37.28L36.77 37.96L36.84 38.64L36.91 39.31L36.99 39.98L37.07 40.64L37.15 41.29L37.24 41.94L37.33 42.59L37.42 43.22L37.52 43.86L37.62 44.48L37.73 45.11L37.83 45.72L37.94 46.33L38.06 46.94L38.18 47.54L38.3 48.13L38.42 48.72L38.55 49.31L38.68 49.88L38.82 50.46L38.96 51.02L39.1 51.58L39.24 52.14L39.39 52.69L39.54 53.24L39.7 53.78L39.86 54.31L40.02 54.84L40.19 55.36L40.35 55.88L40.53 56.39L40.7 56.9L40.88 57.4L40.93 56.83L40.98 56.25L41.03 55.68L41.09 55.11L41.16 54.54L41.23 53.97L41.31 53.4L41.39 52.83L41.48 52.26L41.57 51.7L41.67 51.13L41.77 50.57L41.88 50.01L42 49.44L42.12 48.88L42.24 48.32L42.37 47.76L42.51 47.21L42.65 46.65L42.8 46.09L42.95 45.54L43.11 44.98L43.27 44.43L43.44 43.88L43.62 43.32L43.8 42.77L43.98 42.22L44.17 41.67L44.37 41.13L44.57 40.58L44.78 40.03L44.99 39.49L45.21 38.95L45.43 38.4L45.66 37.86L45.89 37.32L46.13 36.78L46.38 36.24L46.63 35.7L46.88 35.16L47.15 34.63L47.43 34.11L47.72 33.59L48.03 33.08L48.36 32.58L48.7 32.09L49.06 31.61L49.43 31.13L49.81 30.66L50.21 30.2L50.63 29.75L51.06 29.31L51.51 28.88L51.97 28.45L52.44 28.03L52.93 27.62L53.44 27.22L53.96 26.82L54.5 26.44L55.05 26.06L55.61 25.69L56.19 25.33L56.79 24.97L57.4 24.63L58.03 24.29L58.67 23.96L59.32 23.64L60 23.33L60.68 23.03L61.38 22.73L62.1 22.44L62.83 22.16L63.58 21.89L64.34 21.63L65.11 21.37L65.9 21.12L66.71 20.88L67.53 20.65L68.37 20.43L69.22 20.21L68.45 20.65L67.7 21.1L66.97 21.54L66.25 22L65.54 22.46L64.86 22.92L64.18 23.39L63.52 23.87L62.88 24.35L62.26 24.83L61.64 25.32L61.05 25.82L60.47 26.32L59.9 26.83L59.35 27.34L58.82 27.86L58.3 28.38L57.8 28.91L57.31 29.44L56.83 29.98L56.38 30.53L55.93 31.07L55.51 31.63L55.1 32.19L54.7 32.75L54.32 33.32L53.96 33.9L53.61 34.48L53.27 35.07L52.95 35.66L52.65 36.26L52.36 36.86L52.09 37.47L51.83 38.08L51.59 38.7L51.37 39.32L51.16 39.95L50.96 40.59L50.78 41.22L50.62 41.87L50.46 42.52L50.31 43.16L50.17 43.8L50.04 44.44L49.9 45.08L49.78 45.72L49.66 46.36L49.55 46.99L49.44 47.62L49.34 48.25L49.24 48.88L49.15 49.5L49.07 50.13L48.99 50.75L48.92 51.37L48.85 51.99L48.79 52.6L48.74 53.22L48.69 53.83L48.64 54.44L48.61 55.05L48.57 55.66L48.55 56.26L48.53 56.86L48.51 57.47L48.51 58.06L48.5 58.66L48.5 58.88L23.4 58.88L23.26 58.37L23.08 57.69L22.89 57.02L22.69 56.36L22.49 55.7L22.29 55.04L22.08 54.38L21.86 53.73L21.64 53.08L21.41 52.43L21.18 51.79L20.95 51.15L20.71 50.52L20.47 49.89L20.22 49.26L19.96 48.63L19.7 48.01L19.44 47.4L19.17 46.78L18.9 46.17L18.62 45.56L18.33 44.96L18.04 44.36L17.75 43.76L17.45 43.17L17.15 42.58L16.84 41.99L16.53 41.41L16.21 40.83L15.89 40.26L15.56 39.68L15.23 39.11L14.89 38.55L14.55 37.99L14.2 37.43L13.85 36.87L13.49 36.32L13.13 35.77L12.76 35.23L12.39 34.69L12.01 34.15L11.63 33.62L11.25 33.09L10.86 32.56L10.46 32.04L10.06 31.52L9.65 31L9.24 30.49L8.83 29.98L8.41 29.47L7.98 28.97L7.55 28.47L7.12 27.97L6.68 27.48L6.23 26.99L5.78 26.51L5.33 26.02L4.87 25.54L4.4 25.07L3.93 24.6L3.46 24.13L2.98 23.67L2.5 23.21L2.01 22.75L1.51 22.29L1.01 21.84L0.51 21.4L0 20.95L0.63 21.2L1.24 21.45L1.85 21.71L2.46 21.97L3.06 22.23L3.65 22.5L4.23 22.77L4.81 23.05L5.39 23.33L5.95 23.61L6.52 23.9L7.07 24.19L7.62 24.49L8.16 24.79L8.7 25.1L9.23 25.41L9.75 25.72L10.27 26.04L10.78 26.36L11.29 26.69L11.79 27.02L12.28 27.35L12.77 27.69L13.25 28.03L13.72 28.38L14.19 28.73L14.65 29.08L15.11 29.44L15.56 29.81L16 30.18L16.44 30.55L16.87 30.92L17.29 31.3L17.71 31.69L18.12 32.08L18.53 32.47L18.93 32.87L19.32 33.27L19.71 33.67L20.09 34.08L20.47 34.49L20.84 34.91L21.2 35.34L21.55 35.76L21.9 36.2L22.25 36.63L22.59 37.08L22.92 37.52L23.24 37.97L23.56 38.43L23.88 38.89L24.18 39.36L24.48 39.83L24.78 40.3L25.07 40.78L25.35 41.27L25.62 41.75L25.89 42.25L26.16 42.75L26.41 43.25L26.67 43.76L26.91 44.27L27.15 44.79L27.38 45.31L27.61 45.84L27.83 46.37L28.04 46.9L28.25 47.44L28.45 47.99L28.65 48.54L28.83 49.1L29.02 49.66L29.19 50.22L29.36 50.79L29.53 51.36L29.69 51.94L29.84 52.52L29.98 53.11L30.12 53.71L30.26 54.3L30.21 53.6L30.17 52.9L30.14 52.21L30.11 51.51L30.08 50.81L30.05 50.11L30.03 49.42L30.01 48.72L29.99 48.03L29.98 47.34L29.97 46.64L29.96 45.95L29.96 45.26L29.96 44.57L29.97 43.88L29.97 43.19L29.98 42.5L30 41.81L30.01 41.12L30.03 40.44L30.06 39.75L30.09 39.06L30.12 38.38L30.15 37.69L30.19 37.01L30.23 36.33L30.27 35.65L30.32 34.96L30.37 34.28L30.42 33.6L30.48 32.92L30.54 32.24L30.6 31.57L30.67 30.89L30.74 30.21L30.81 29.53L30.89 28.86L30.97 28.18L31.05 27.51L31.14 26.84L31.23 26.16L31.33 25.49L31.42 24.82L31.52 24.14L31.63 23.47L31.73 22.8L31.84 22.13L31.96 21.45L32.07 20.78L32.19 20.11L32.32 19.44L32.44 18.76L32.57 18.09L32.71 17.42L32.84 16.75L32.98 16.08L33.13 15.41L33.27 14.74L33.42 14.06L33.58 13.39L33.73 12.72L33.89 12.05L34.06 11.38L34.22 10.71L34.39 10.04L34.57 9.37L34.74 8.7L34.92 8.03L35.11 7.36L35.29 6.69L35.48 6.02L35.68 5.35L35.87 4.68L36.07 4.01L36.27 3.34L36.48 2.67L36.69 2L36.9 1.33L37.12 0.67L37.34 0L37.25 0.93L37.16 1.86Z" id="a5N5u2CIK"></path></defs><g><g><g><use xlink:href="#a31o3BpGvS" opacity="1" fill="#138900" fill-opacity="1"></use></g><g><use xlink:href="#a6ht54VwG" opacity="1" fill="#19b300" fill-opacity="1"></use></g><g><use xlink:href="#a5N5u2CIK" opacity="1" fill="#23de05" fill-opacity="1"></use></g></g></g></svg>