<?xml version="1.0" encoding="UTF-8" standalone="no"?>
<!DOCTYPE svg PUBLIC "-//W3C//DTD SVG 1.1//EN" "http://www.w3.org/Graphics/SVG/1.1/DTD/svg11.dtd">
<svg version="1.1" xmlns="http://www.w3.org/2000/svg" xmlns:xlink="http://www.w3.org/1999/xlink" preserveAspectRatio="xMidYMid meet" viewBox="-0.9966631835598321 -14.99946253005929 266.52212442146845 321.29506510755834" width="259.21" height="291.3"><defs><path d="M41.6 250.29L187.77 250.29L187.77 263.75L187.75 264.88L187.68 266.01L187.57 267.12L187.41 268.21L187.21 269.3L186.97 270.37L186.69 271.42L186.37 272.45L186 273.47L185.61 274.47L185.17 275.45L184.7 276.41L184.19 277.34L183.64 278.26L183.07 279.15L182.46 280.02L181.81 280.86L181.14 281.68L180.43 282.46L179.7 283.23L178.94 283.96L178.15 284.66L177.33 285.34L176.49 285.98L175.62 286.59L174.73 287.17L173.82 287.71L172.88 288.22L171.92 288.69L170.94 289.13L169.95 289.53L168.93 289.89L167.89 290.21L166.84 290.49L165.77 290.74L164.69 290.94L163.59 291.09L162.48 291.2L161.36 291.27L160.22 291.3L37.77 291.3L37.77 291.1L37.1 291.03L35.8 290.82L34.53 290.53L33.29 290.16L32.09 289.71L30.92 289.2L29.79 288.61L28.71 287.96L27.67 287.25L26.67 286.47L25.73 285.64L24.84 284.75L24 283.8L23.23 282.81L22.51 281.77L21.86 280.68L21.27 279.55L20.76 278.38L20.31 277.18L19.95 275.94L19.65 274.67L19.44 273.37L19.31 272.05L19.27 270.7L19.31 269.36L19.44 268.03L19.65 266.73L19.95 265.46L20.31 264.23L20.76 263.02L21.27 261.85L21.86 260.73L22.51 259.64L23.23 258.6L24 257.6L24.84 256.66L25.73 255.77L26.67 254.94L27.67 254.16L28.71 253.44L29.79 252.79L30.92 252.21L32.09 251.69L33.29 251.25L34.53 250.88L35.8 250.59L37.1 250.37L37.77 250.31L37.77 250.29L37.94 250.29L38.42 250.25L39.77 250.2L41.12 250.25L41.6 250.29Z" id="beMhN50be"></path><path d="M228.23 76.57L229.54 76.49L230.84 76.5L232.13 76.6L233.4 76.77L234.66 77.02L235.88 77.35L237.09 77.75L238.26 78.22L239.4 78.76L240.5 79.37L241.56 80.05L242.58 80.79L243.55 81.59L244.48 82.45L245.35 83.37L246.16 84.34L246.92 85.37L247.62 86.45L248.24 87.58L248.8 88.76L249.29 89.98L249.71 91.24L250.04 92.55L250.29 93.87L250.45 95.19L250.53 96.51L250.52 97.81L250.42 99.1L250.25 100.37L250 101.62L249.67 102.85L249.27 104.05L248.8 105.22L248.26 106.36L247.65 107.46L246.97 108.53L246.23 109.55L245.43 110.52L244.57 111.44L243.65 112.31L242.67 113.13L241.65 113.89L240.57 114.58L239.44 115.21L238.26 115.77L237.04 116.26L236.4 116.47L236.4 116.48L236.24 116.52L235.78 116.67L234.47 117.01L233.15 117.26L232.66 117.32L89.97 149L81.08 108.97L227.52 76.46L227.56 76.65L228.23 76.57Z" id="gIOHB6ERe"></path><path d="M86.8 107.7L179.83 87.05L110.42 139.16L86.8 107.7Z" id="b5LRwGMbhL"></path><path d="M194.2 0.13L195.44 0.3L196.68 0.56L197.9 0.88L199.09 1.29L200.27 1.77L201.41 2.32L202.53 2.94L203.6 3.64L204.64 4.41L205.64 5.25L206.59 6.16L207.49 7.14L208.33 8.19L209.1 9.29L209.79 10.43L210.4 11.59L210.93 12.78L211.38 14L211.75 15.23L212.04 16.47L212.25 17.72L212.38 18.98L212.43 20.24L212.41 21.51L212.31 22.76L212.13 24.01L211.88 25.24L211.55 26.46L211.14 27.66L210.67 28.83L210.12 29.98L209.49 31.09L208.8 32.17L208.03 33.21L207.19 34.2L206.28 35.15L205.78 35.61L205.79 35.62L205.66 35.72L205.3 36.05L204.24 36.89L203.14 37.67L202.73 37.92L85.84 125.69L61.22 92.9L181.17 2.83L181.29 2.99L181.86 2.64L183.03 2.03L184.22 1.5L185.43 1.05L186.66 0.68L187.91 0.39L189.16 0.18L190.42 0.05L191.68 0L192.94 0.02L194.2 0.13Z" id="c2VfsfjOLP"></path><path d="M65.3 76.89L67.61 77.22L69.9 77.64L72.16 78.15L74.38 78.74L76.56 79.42L78.71 80.19L80.82 81.03L82.89 81.95L84.91 82.95L86.89 84.03L88.82 85.18L90.7 86.4L92.53 87.69L94.31 89.05L96.04 90.47L97.7 91.96L99.31 93.5L100.86 95.11L102.35 96.78L103.77 98.51L105.13 100.28L106.42 102.12L107.64 104L108.79 105.93L109.86 107.91L110.86 109.93L111.79 112L112.63 114.11L113.39 116.25L114.07 118.44L114.67 120.66L115.18 122.92L115.6 125.2L115.93 127.52L116.17 129.87L116.31 132.24L116.36 134.64L116.31 137.03L116.17 139.4L115.93 141.75L115.6 144.07L115.18 146.35L114.67 148.61L114.07 150.83L113.39 153.02L112.63 155.16L111.95 156.87L112.81 156.4L115.01 155.31L117.25 154.31L119.54 153.39L121.88 152.57L124.25 151.83L126.66 151.18L129.11 150.63L131.6 150.17L134.11 149.81L136.66 149.55L139.24 149.39L141.84 149.34L144.44 149.39L147.02 149.55L149.57 149.81L152.09 150.17L154.57 150.63L157.02 151.18L159.43 151.83L161.81 152.57L164.14 153.39L166.43 154.31L168.67 155.31L170.87 156.4L173.02 157.57L175.12 158.82L177.16 160.14L179.15 161.54L181.08 163.02L182.96 164.56L184.77 166.18L186.52 167.86L188.2 169.61L189.82 171.42L191.36 173.29L192.84 175.22L194.24 177.21L195.56 179.26L196.81 181.36L197.98 183.5L199.06 185.7L200.07 187.95L200.98 190.24L201.81 192.57L202.55 194.94L203.2 197.36L203.75 199.81L204.01 201.19L204.02 201.16L204.63 200.05L205.29 198.97L205.99 197.92L206.74 196.9L207.53 195.92L208.35 194.97L209.22 194.06L210.12 193.19L211.06 192.35L212.03 191.56L213.04 190.81L214.08 190.1L215.15 189.43L216.24 188.81L217.37 188.24L218.53 187.72L219.71 187.24L220.91 186.82L222.14 186.45L223.39 186.13L224.66 185.87L225.95 185.66L227.26 185.51L228.58 185.42L229.92 185.39L231.26 185.42L232.59 185.51L233.9 185.66L235.19 185.87L236.46 186.13L237.71 186.45L238.93 186.82L240.14 187.24L241.32 187.72L242.48 188.24L243.6 188.81L244.7 189.43L245.77 190.1L246.81 190.81L247.82 191.56L248.79 192.35L249.73 193.19L250.63 194.06L251.5 194.97L252.32 195.92L253.11 196.9L253.85 197.92L254.55 198.97L255.21 200.05L255.83 201.16L256.39 202.3L256.91 203.46L257.38 204.66L257.8 205.87L258.17 207.11L258.48 208.38L258.74 209.66L258.95 210.96L259.09 212.28L259.18 213.62L259.21 214.98L259.18 216.33L259.09 217.67L258.95 218.99L258.74 220.29L258.48 221.57L258.17 222.84L257.8 224.08L257.38 225.29L256.91 226.49L256.39 227.65L255.83 228.79L255.21 229.9L254.55 230.98L253.85 232.03L253.11 233.05L252.32 234.03L251.5 234.98L250.63 235.89L249.73 236.76L248.79 237.6L247.82 238.39L246.81 239.14L245.77 239.85L244.7 240.52L243.6 241.14L242.48 241.71L241.32 242.23L240.14 242.71L238.93 243.13L237.71 243.5L236.46 243.82L235.19 244.08L233.9 244.29L232.59 244.44L231.26 244.53L229.92 244.56L228.58 244.53L227.26 244.44L225.95 244.29L224.66 244.08L223.39 243.82L222.14 243.5L220.91 243.13L219.71 242.71L218.53 242.23L217.37 241.71L216.24 241.14L215.15 240.52L214.08 239.85L213.04 239.14L212.03 238.39L211.06 237.6L210.12 236.76L209.22 235.89L208.35 234.98L207.53 234.03L206.74 233.05L205.99 232.03L205.29 230.98L204.63 229.9L204.02 228.79L203.46 227.65L203.29 227.29L203.2 227.71L202.55 230.13L201.81 232.5L200.98 234.83L200.07 237.12L199.06 239.37L197.98 241.57L196.81 243.72L195.56 245.81L194.24 247.86L192.84 249.85L191.36 251.78L189.82 253.65L188.2 255.46L186.52 257.21L184.77 258.9L182.96 260.51L181.08 262.06L179.15 263.53L177.16 264.93L175.12 266.26L173.02 267.5L170.87 268.67L168.67 269.76L166.43 270.76L164.14 271.68L161.81 272.51L159.43 273.25L157.02 273.89L154.57 274.45L152.09 274.9L149.57 275.26L147.02 275.52L144.44 275.68L141.84 275.73L139.24 275.68L136.66 275.52L134.11 275.26L131.6 274.9L129.11 274.45L126.66 273.89L124.25 273.25L121.88 272.51L119.54 271.68L117.25 270.76L115.01 269.76L112.81 268.67L110.66 267.5L108.56 266.26L106.52 264.93L104.53 263.53L102.6 262.06L100.72 260.51L98.91 258.9L97.16 257.21L95.48 255.46L93.87 253.65L92.32 251.78L90.85 249.85L89.45 247.86L88.12 245.81L86.87 243.72L85.7 241.57L84.62 239.37L83.62 237.12L82.7 234.83L81.87 232.5L81.13 230.13L80.48 227.71L79.93 225.27L79.47 222.78L79.12 220.26L78.86 217.72L78.7 215.14L78.65 212.54L78.7 209.93L78.86 207.36L79.12 204.81L79.47 202.29L79.93 199.81L80.48 197.36L81.13 194.94L81.87 192.57L82.7 190.24L83.62 187.95L84.19 186.67L82.89 187.32L80.82 188.24L78.71 189.08L76.56 189.85L74.38 190.53L72.16 191.12L69.9 191.63L67.61 192.05L65.3 192.38L62.95 192.62L60.58 192.77L58.18 192.81L55.79 192.77L53.41 192.62L51.07 192.38L48.75 192.05L46.46 191.63L44.21 191.12L41.99 190.53L39.8 189.85L37.65 189.08L35.55 188.24L33.48 187.32L31.46 186.32L29.48 185.24L27.55 184.09L25.66 182.87L23.83 181.58L22.05 180.23L20.33 178.8L18.66 177.31L17.05 175.77L15.5 174.16L14.02 172.49L12.59 170.76L11.23 168.99L9.95 167.15L8.72 165.27L7.58 163.34L6.5 161.36L5.5 159.34L4.58 157.27L3.73 155.16L2.97 153.02L2.29 150.83L1.7 148.61L1.19 146.35L0.77 144.07L0.43 141.75L0.2 139.4L0.05 137.03L0 134.64L0.05 132.24L0.2 129.87L0.43 127.52L0.77 125.2L1.19 122.92L1.7 120.66L2.29 118.44L2.97 116.25L3.73 114.11L4.58 112L5.5 109.93L6.5 107.91L7.58 105.93L8.72 104L9.95 102.12L11.23 100.28L12.59 98.51L14.02 96.78L15.5 95.11L17.05 93.5L18.66 91.96L20.33 90.47L22.05 89.05L23.83 87.69L25.66 86.4L27.55 85.18L29.48 84.03L31.46 82.95L33.48 81.95L35.55 81.03L37.65 80.19L39.8 79.42L41.99 78.74L44.21 78.15L46.46 77.64L48.75 77.22L51.07 76.89L53.41 76.65L55.79 76.5L58.18 76.46L60.58 76.5L62.95 76.65L62.95 76.65L65.3 76.89Z" id="e2RFoFVLBs"></path><path d="M85.85 140.74C85.85 148.07 79.96 154.02 72.7 154.02C65.44 154.02 59.55 148.07 59.55 140.74C59.55 133.41 65.44 127.46 72.7 127.46C79.96 127.46 85.85 133.41 85.85 140.74Z" id="i3rhVR3zUi"></path><path d="M72.75 136.6C72.75 138.88 70.91 140.74 68.65 140.74C66.39 140.74 64.55 138.88 64.55 136.6C64.55 134.31 66.39 132.46 68.65 132.46C70.91 132.46 72.75 134.31 72.75 136.6Z" id="aMFE9KGQe"></path></defs><g><g><use xlink:href="#beMhN50be" opacity="1" fill="#ffffff" fill-opacity="0.98"></use></g><g><use xlink:href="#gIOHB6ERe" opacity="1" fill="#bcbcbc" fill-opacity="0.96"></use></g><g><use xlink:href="#b5LRwGMbhL" opacity="1" fill="#818181" fill-opacity="1.00"></use></g><g><use xlink:href="#c2VfsfjOLP" opacity="1" fill="#ffffff" fill-opacity="1.00"></use></g><g><use xlink:href="#e2RFoFVLBs" opacity="1" fill="#ffffff" fill-opacity="1"></use></g><g><use xlink:href="#i3rhVR3zUi" opacity="1" fill="#4317dd" fill-opacity="1"></use></g><g><use xlink:href="#aMFE9KGQe" opacity="1" fill="#ffffff" fill-opacity="1.00"></use></g></g></svg>